<?xml version="1.0" standalone="no"?>
<!DOCTYPE svg PUBLIC "-//W3C//DTD SVG 20010904//EN"
 "http://www.w3.org/TR/2001/REC-SVG-20010904/DTD/svg10.dtd">
<svg version="1.0" xmlns="http://www.w3.org/2000/svg"
 width="338.000000pt" height="338.000000pt" viewBox="0 0 338.000000 338.000000"
 preserveAspectRatio="xMidYMid meet">

<g transform="translate(0.000000,338.000000) scale(0.100000,-0.100000)"
fill="#000000" stroke="none">
<path d="M1475 3370 c-3 -5 -28 -10 -55 -10 -27 0 -61 -5 -77 -11 -15 -6 -46
-14 -68 -19 -86 -19 -130 -32 -140 -41 -5 -5 -17 -9 -26 -9 -10 0 -30 -6 -46
-14 -78 -39 -140 -66 -151 -66 -6 0 -12 -4 -12 -9 0 -5 -10 -13 -22 -17 -71
-22 -311 -207 -417 -320 -76 -81 -204 -251 -240 -319 -12 -22 -26 -47 -31 -55
-4 -8 -20 -42 -35 -75 -15 -33 -33 -73 -41 -88 -8 -16 -14 -34 -14 -42 0 -7
-7 -26 -15 -41 -8 -16 -15 -39 -15 -51 0 -12 -4 -25 -10 -28 -5 -3 -10 -19
-10 -34 0 -16 -7 -48 -15 -71 -8 -23 -15 -64 -15 -91 0 -26 -4 -51 -10 -54
-14 -8 -14 -422 0 -430 6 -3 10 -28 10 -55 0 -27 5 -61 11 -77 6 -15 14 -46
19 -68 19 -86 32 -130 41 -139 5 -6 9 -18 9 -27 0 -10 6 -30 14 -46 8 -15 26
-55 41 -88 15 -33 31 -67 35 -75 5 -8 19 -33 31 -55 36 -68 164 -238 240 -319
106 -113 346 -298 417 -320 12 -4 22 -12 22 -17 0 -5 6 -9 12 -9 11 0 73 -27
151 -66 16 -8 36 -14 46 -14 9 0 21 -4 27 -9 9 -10 55 -23 142 -41 24 -6 48
-13 54 -16 39 -24 550 -46 572 -24 5 5 31 10 57 10 26 0 60 5 76 11 15 6 46
14 68 19 86 19 130 32 139 41 6 5 18 9 27 9 10 0 30 6 46 14 78 39 140 66 151
66 6 0 12 4 12 9 0 5 10 13 23 17 70 22 310 207 416 320 76 81 204 251 240
319 12 22 26 47 31 55 4 8 20 42 35 75 15 33 33 73 41 88 8 16 14 36 14 46 0
9 4 21 9 27 9 9 22 53 41 139 5 22 13 53 19 68 6 16 11 50 11 77 0 27 4 52 10
55 6 4 10 87 10 215 0 128 -4 211 -10 215 -5 3 -10 28 -10 55 0 27 -5 61 -11
77 -6 15 -14 46 -19 68 -19 86 -32 130 -41 140 -5 5 -9 17 -9 26 0 10 -6 30
-14 46 -8 15 -26 55 -41 88 -15 33 -31 67 -35 75 -5 8 -19 33 -31 55 -36 68
-164 238 -240 319 -106 113 -346 298 -416 320 -13 4 -23 12 -23 17 0 5 -6 9
-12 9 -11 0 -73 27 -151 66 -16 8 -36 14 -46 14 -9 0 -21 4 -27 9 -9 10 -55
23 -142 41 -24 6 -48 13 -54 16 -39 24 -559 46 -573 24z m440 -731 c44 -11 92
-23 107 -26 15 -3 33 -11 39 -19 6 -8 20 -14 30 -14 11 0 19 -4 19 -9 0 -5 10
-11 23 -15 37 -9 133 -95 197 -174 44 -57 56 -76 80 -137 4 -11 13 -33 20 -50
29 -68 39 -199 25 -328 -14 -122 -33 -219 -48 -233 -4 -4 -7 -17 -7 -29 0 -13
-7 -28 -15 -35 -8 -7 -15 -19 -15 -27 0 -29 -91 -152 -156 -211 -61 -56 -113
-88 -211 -128 -58 -23 -242 -23 -278 0 -13 9 -29 16 -35 16 -18 0 -88 55 -99
78 -17 35 -28 26 -46 -35 -40 -140 -45 -161 -45 -174 0 -31 -53 -178 -92 -254
-58 -116 -100 -141 -147 -91 -31 33 -36 112 -17 246 19 137 27 175 71 345 7
28 18 77 24 110 7 33 18 83 26 110 30 107 33 150 15 240 -7 36 -10 95 -6 147
7 107 40 177 105 223 37 26 52 30 106 30 54 0 68 -4 91 -25 58 -54 78 -144 49
-225 -8 -22 -15 -50 -15 -63 0 -12 -4 -30 -9 -40 -6 -9 -17 -44 -26 -77 -9
-33 -22 -81 -30 -106 -20 -64 -19 -148 2 -179 86 -127 254 -132 369 -10 39 41
104 144 104 164 0 7 3 16 7 20 10 10 33 91 43 151 31 194 31 226 1 350 -11 44
-34 95 -43 95 -4 0 -8 5 -8 10 0 20 -45 72 -95 108 -107 79 -162 94 -330 89
-143 -4 -182 -12 -264 -54 -73 -37 -201 -164 -231 -228 -35 -77 -38 -86 -55
-151 -32 -128 -15 -237 52 -343 32 -50 34 -57 24 -95 -5 -23 -12 -53 -16 -68
-6 -32 -48 -48 -74 -29 -9 6 -25 15 -36 20 -28 12 -115 115 -115 135 0 9 -4
16 -9 16 -5 0 -13 15 -16 33 -4 17 -10 37 -14 42 -3 6 -11 48 -17 95 -18 127
1 270 46 352 6 10 10 24 10 32 0 7 7 19 15 26 8 7 15 19 15 27 0 18 69 111
121 162 42 42 199 151 217 151 6 0 23 6 39 14 27 14 97 35 178 54 76 18 263
13 350 -9z"/>
</g>
</svg>
