<?xml version="1.0" standalone="no"?>
<!DOCTYPE svg PUBLIC "-//W3C//DTD SVG 20010904//EN"
 "http://www.w3.org/TR/2001/REC-SVG-20010904/DTD/svg10.dtd">
<svg version="1.0" xmlns="http://www.w3.org/2000/svg"
 width="225.000000pt" height="225.000000pt" viewBox="0 0 225.000000 225.000000"
 preserveAspectRatio="xMidYMid meet">

<g transform="translate(0.000000,225.000000) scale(0.100000,-0.100000)"
fill="#000000" stroke="none">
<path d="M273 2236 c-100 -32 -190 -113 -241 -216 l-27 -55 0 -840 0 -840 29
-60 c38 -77 114 -153 191 -191 l60 -29 423 -3 422 -3 0 426 0 425 -140 0 -140
0 0 185 0 184 138 3 137 3 6 130 c4 97 11 145 27 188 45 125 127 217 240 270
67 32 67 32 260 35 l192 4 0 -186 0 -186 -149 0 c-82 0 -160 -4 -173 -9 -39
-15 -53 -55 -53 -155 l0 -91 188 -3 187 -2 0 -185 0 -185 -190 0 -190 0 0
-426 0 -425 248 3 247 3 60 29 c77 38 153 114 191 191 l29 60 0 840 0 840 -29
60 c-38 77 -114 153 -191 191 l-60 29 -825 2 c-665 2 -833 -1 -867 -11z"/>
</g>
</svg>
